<svg xmlns="http://www.w3.org/2000/svg" viewBox="0 0 28 28" fill="none">
  <rect width="28" height="28" rx="6" fill="#ffffff"/>
  <path d="M14 2C14 2 8 8 8 14C8 17.5 10 20 10 20C10 20 9 18 10 16C11 14 13 13 13 13C13 13 11 17 14 19C17 21 18 18 18 18C18 18 20 16.5 20 14C20 10 17 6 14 2Z" fill="#ff4d1c"/>
  <path d="M14 26C11 26 9 24 9 22C9 20 11 19 11 19C11 19 10.5 21 12 22C13 22.8 14 22 14 22C14 22 15 22.8 16 22C17.5 21 17 19 17 19C17 19 19 20 19 22C19 24 17 26 14 26Z" fill="#ff4d1c" opacity="0.6"/>
</svg>
